<?xml version="1.0" encoding="utf-8"?>
<!-- Generator: Adobe Illustrator 19.0.0, SVG Export Plug-In . SVG Version: 6.00 Build 0)  -->
<svg version="1.1" id="Layer_1" xmlns="http://www.w3.org/2000/svg" xmlns:xlink="http://www.w3.org/1999/xlink" x="0px" y="0px"
	 viewBox="0 0 64 64" style="enable-background:new 0 0 64 64;" xml:space="preserve">
<style type="text/css">
	.st0{fill:none;stroke:#000000;stroke-width:2;stroke-miterlimit:10;}
	.st1{fill:none;stroke:#000000;stroke-width:2;stroke-linecap:round;stroke-linejoin:bevel;stroke-miterlimit:10;}
</style>
<g id="XMLID_2_">
	<path id="XMLID_3_" class="st0" d="M22.1,50.3l1-9.2L54.2,2.4c0.4-0.6,1.2-0.7,1.7-0.4l6,4.2c0.4,0.3,0.4,0.9,0,1.4L30.4,46.8
		L22,49.9"/>
	<line id="XMLID_4_" class="st0" x1="52.1" y1="5.5" x2="59.7" y2="10.8"/>
</g>
<polyline id="XMLID_1_" class="st1" points="47.6,6.2 2.8,6.2 2.8,62.2 56,62.2 56,19.7 "/>
<line id="XMLID_5_" class="st0" x1="7" y1="11.4" x2="42.1" y2="11.4"/>
<line id="XMLID_6_" class="st0" x1="7" y1="18" x2="36.4" y2="18"/>
<line id="XMLID_9_" class="st0" x1="7" y1="24.8" x2="32.1" y2="24.8"/>
<line id="XMLID_8_" class="st0" x1="7" y1="31.4" x2="27.8" y2="31.4"/>
<line id="XMLID_11_" class="st0" x1="6.5" y1="38" x2="22.5" y2="38"/>
<line id="XMLID_10_" class="st0" x1="6.5" y1="44.6" x2="20" y2="44.6"/>
</svg>
