<?xml version="1.0" encoding="utf-8"?>
<!-- Generator: Adobe Illustrator 19.0.0, SVG Export Plug-In . SVG Version: 6.00 Build 0)  -->
<svg version="1.1" id="Layer_1" xmlns="http://www.w3.org/2000/svg" xmlns:xlink="http://www.w3.org/1999/xlink" x="0px" y="0px"
	 viewBox="-237 239 24 24" style="enable-background:new -237 239 24 24;" xml:space="preserve">
<style type="text/css">
	.st0{fill:#FFFFFF;}
	.st1{fill:none;}
</style>
<path class="st0" d="M-213.7,239l-0.2,0l-7.1,2.8l-8-2.8l-7.5,2.5c-0.3,0.1-0.5,0.3-0.5,0.6v20.2c0,0.4,0.3,0.7,0.7,0.7l0.2,0
	l7.1-2.8l8,2.8l7.5-2.5c0.3-0.1,0.5-0.3,0.5-0.6v-20.2C-213,239.3-213.3,239-213.7,239z M-221,260.3l-8-2.8v-15.9l8,2.8V260.3z"/>
<path class="st1" d="M-237,239h24v24h-24V239z"/>
</svg>
