<?xml version="1.0" encoding="utf-8"?>
<!-- Generator: Adobe Illustrator 19.0.0, SVG Export Plug-In . SVG Version: 6.00 Build 0)  -->
<svg version="1.1" id="Lager_1" xmlns="http://www.w3.org/2000/svg" xmlns:xlink="http://www.w3.org/1999/xlink" x="0px" y="0px"
	 viewBox="-225 227 48 48" style="enable-background:new -225 227 48 48;" xml:space="preserve">
<style type="text/css">
	.st0{clip-path:url(#SVGID_5_);}
	.st1{clip-path:url(#SVGID_6_);fill:#FFFFFF;}
	.st2{clip-path:url(#SVGID_11_);}
	.st3{clip-path:url(#SVGID_12_);fill:#FFFFFF;}
	.st4{clip-path:url(#SVGID_17_);}
	.st5{clip-path:url(#SVGID_18_);fill:#FFFFFF;}
	.st6{clip-path:url(#SVGID_20_);fill:#FFFFFF;}
</style>
<g>
	<g>
		<defs>
			<path id="SVGID_1_" d="M-189.2,247.7c-2.3,2.5-5.5,4.1-9.2,4.1c-0.7,0-1.4-0.1-2.1-0.2c0,0.1,0,0.1,0,0.2c0,3.6-1.5,6.8-4,9.1
				c12.1,6.3,27.4,13.9,27.4,13.9L-189.2,247.7z"/>
		</defs>
		<clipPath id="SVGID_2_">
			<use xlink:href="#SVGID_1_"  style="overflow:visible;"/>
		</clipPath>
	</g>
	<g>
		<defs>
			<path id="SVGID_3_" d="M-189.2,247.7c-2.3,2.5-5.5,4.1-9.2,4.1c-0.7,0-1.4-0.1-2.1-0.2c0,0.1,0,0.1,0,0.2c0,3.6-1.5,6.8-4,9.1
				c12.1,6.3,27.4,13.9,27.4,13.9L-189.2,247.7z"/>
		</defs>
		<defs>
			<path id="SVGID_4_" d="M-211.7,257c12.1,6.6,34.7,17.8,34.7,17.8l-17.4-38.8"/>
		</defs>
		<clipPath id="SVGID_5_">
			<use xlink:href="#SVGID_3_"  style="overflow:visible;"/>
		</clipPath>
		<clipPath id="SVGID_6_" class="st0">
			<use xlink:href="#SVGID_4_"  style="overflow:visible;"/>
		</clipPath>
		<rect x="-222" y="225.8" class="st1" width="55.2" height="59.3"/>
	</g>
</g>
<g>
	<g>
		<defs>
			<circle id="SVGID_7_" cx="-212.7" cy="251.8" r="10.3"/>
		</defs>
		<clipPath id="SVGID_8_">
			<use xlink:href="#SVGID_7_"  style="overflow:visible;"/>
		</clipPath>
	</g>
	<g>
		<defs>
			<circle id="SVGID_9_" cx="-212.7" cy="251.8" r="10.3"/>
		</defs>
		<defs>
			<path id="SVGID_10_" d="M-204.7,244.6c-2.2,3.1-5.9,5.1-10,5.1c-2.8,0-5.4-0.9-7.4-2.5c-0.5,1.2-0.8,2.5-0.8,3.9
				c0,5.7,4.6,10.3,10.3,10.3s10.3-4.6,10.3-10.3C-202.4,248.7-203.3,246.4-204.7,244.6z"/>
		</defs>
		<clipPath id="SVGID_11_">
			<use xlink:href="#SVGID_9_"  style="overflow:visible;"/>
		</clipPath>
		<clipPath id="SVGID_12_" class="st2">
			<use xlink:href="#SVGID_10_"  style="overflow:visible;"/>
		</clipPath>
		<rect x="-233.2" y="231.3" class="st3" width="41" height="41"/>
	</g>
</g>
<g>
	<g>
		<defs>
			<path id="SVGID_13_" d="M-198.3,229.2c-2.2,0-4.2,0.7-5.9,1.9c1.1,1.9,1.8,4,1.8,6.3c0,1.9-0.4,3.7-1.2,5.3
				c1.7,1.8,2.8,4.2,3.2,6.7c0.7,0.2,1.4,0.2,2.2,0.2c5.7,0,10.3-4.6,10.3-10.3S-192.7,229.2-198.3,229.2z"/>
		</defs>
		<clipPath id="SVGID_14_">
			<use xlink:href="#SVGID_13_"  style="overflow:visible;"/>
		</clipPath>
	</g>
	<g>
		<defs>
			<path id="SVGID_15_" d="M-198.3,229.2c-2.2,0-4.2,0.7-5.9,1.9c1.1,1.9,1.8,4,1.8,6.3c0,1.9-0.4,3.7-1.2,5.3
				c1.7,1.8,2.8,4.2,3.2,6.7c0.7,0.2,1.4,0.2,2.2,0.2c5.7,0,10.3-4.6,10.3-10.3S-192.7,229.2-198.3,229.2z"/>
		</defs>
		<defs>
			<circle id="SVGID_16_" cx="-198.3" cy="239.5" r="10.3"/>
		</defs>
		<clipPath id="SVGID_17_">
			<use xlink:href="#SVGID_15_"  style="overflow:visible;"/>
		</clipPath>
		<clipPath id="SVGID_18_" class="st4">
			<use xlink:href="#SVGID_16_"  style="overflow:visible;"/>
		</clipPath>
		<rect x="-218.8" y="219" class="st5" width="41" height="41"/>
	</g>
</g>
<g>
	<g>
		<defs>
			<circle id="SVGID_19_" cx="-214.7" cy="237.4" r="10.3"/>
		</defs>
		<clipPath id="SVGID_20_">
			<use xlink:href="#SVGID_19_"  style="overflow:visible;"/>
		</clipPath>
		<rect x="-235.2" y="216.9" class="st6" width="41" height="41"/>
	</g>
</g>
</svg>
